<svg width="554" height="339" viewBox="0 0 554 339" fill="none" xmlns="http://www.w3.org/2000/svg">
<path d="M237.626 68.0654H292.002C339.99 68.0743 387.307 79.366 430.143 101.032L507.485 140.173C526.566 149.827 541.185 166.491 548.289 186.685C555.393 206.879 554.433 229.04 545.608 248.541C536.866 267.867 521.07 283.109 501.46 291.137C481.851 299.165 459.917 299.372 440.161 291.714L333.55 250.394L187.976 266.088L142.883 316.704C130.5 328.044 114.911 335.261 98.2632 337.362C81.6153 339.463 64.7268 336.345 49.9215 328.436C43.8897 325.234 38.2219 321.387 33.0176 316.962C-9.79813 280.668 -9.30135 214.271 32.2813 176.622L88.7981 125.474C129.595 88.5363 182.629 68.0791 237.626 68.0654Z" fill="#3B3C3C" stroke="#3B3C3C" stroke-width="1.13468" stroke-miterlimit="10"/>
<path d="M279.14 25.5279C279.14 25.6994 279.14 25.8882 279.14 26.0597C279.07 32.4049 276.495 38.4646 271.978 42.9142C267.461 47.3638 261.369 49.8416 255.033 49.8065C248.697 49.7714 242.632 47.226 238.164 42.7266C233.697 38.2271 231.188 32.1394 231.188 25.7938C231.188 19.4481 233.697 13.3604 238.164 8.86097C242.632 4.36152 248.697 1.8162 255.033 1.78107C261.369 1.74594 267.461 4.22415 271.978 8.67379C276.495 13.1234 279.07 19.1826 279.14 25.5279Z" fill="white" stroke="black" stroke-width="1.13468" stroke-miterlimit="10"/>
<path d="M243.585 33.1951C243.397 39.2156 250.521 43.4868 256.344 42.0803C262.167 40.6738 266.157 34.9792 267.664 29.1646" stroke="black" stroke-width="1.13468" stroke-miterlimit="10"/>
<path d="M279.14 25.5282C279.14 25.6997 279.14 25.8885 279.14 26.06C277.316 26.5891 275.385 26.6306 273.54 26.1802C271.448 25.6559 269.544 24.5567 268.042 23.0069C266.611 21.2929 265.455 19.3657 264.617 17.295C263.804 15.2043 262.377 13.41 260.524 12.1494C258.16 10.8629 255.746 12.1498 253.673 13.419C249.769 15.9404 245.658 18.5647 240.794 17.6728C237.93 17.1027 235.349 15.5646 233.481 13.316C236.162 8.63058 240.314 4.96347 245.291 2.88565C250.268 0.807826 255.791 0.43556 261.001 1.82662C266.211 3.21767 270.816 6.29444 274.099 10.5778C277.383 14.8611 279.161 20.1109 279.157 25.511L279.14 25.5282Z" fill="black" stroke="black" stroke-width="1.13468" stroke-miterlimit="10"/>
<path d="M424.541 165.097C440.469 158.596 467.357 157.344 483.747 162.335" stroke="white" stroke-width="1.13468" stroke-miterlimit="10"/>
<path d="M41.0842 246.552C55.2819 226.312 88.61 199.023 108.99 185.061" stroke="white" stroke-width="1.13468" stroke-miterlimit="10"/>
<path d="M428.482 198.783C420.998 217.221 398.579 223.088 380.374 220.086C360.405 216.827 343.895 201.836 334.818 184.22C329.885 174.649 326.94 163.295 330.262 153.021C331.718 148.629 334.181 144.64 337.455 141.374C337.48 141.322 337.515 141.275 337.558 141.237C342.226 136.555 347.981 133.108 354.308 131.203L355.25 130.877C353.726 126.16 353.075 120.963 356.825 117.275C357.05 117.019 357.296 116.784 357.562 116.572C359.862 114.827 362.674 113.892 365.56 113.913C367.836 113.919 370.1 114.236 372.29 114.857C372.491 112.125 373.714 109.571 375.716 107.705C378.114 105.829 381.125 104.917 384.159 105.149C390.461 105.372 396.284 108.905 400.617 113.519C404.725 118.325 408.18 123.654 410.893 129.368C413.411 134.119 415.928 138.527 418.737 143.089C424.014 151.961 427.771 161.654 429.852 171.768C431.873 180.738 431.941 190.292 428.482 198.783Z" fill="white" stroke="black" stroke-width="1.13468" stroke-miterlimit="10"/>
<path d="M355.249 130.877L354.307 131.203C347.981 133.107 342.226 136.555 337.558 141.236C337.514 141.274 337.479 141.321 337.455 141.374C328.705 127.403 323.068 111.706 320.928 95.3542C320.466 91.5979 320.517 87.0528 323.634 84.8916C324.738 84.2245 325.996 83.8577 327.285 83.8276C328.574 83.7975 329.848 84.105 330.981 84.7199C333.231 85.977 335.219 87.654 336.839 89.66C344.365 98.2058 351.057 107.453 356.825 117.275C353.074 120.963 353.725 126.16 355.249 130.877Z" fill="white" stroke="black" stroke-width="1.13468" stroke-miterlimit="10"/>
<path d="M381.008 180.087C377.876 175.017 373.089 171.187 367.461 169.247C365.204 168.639 363 167.853 360.867 166.897C359.796 166.412 358.862 165.667 358.15 164.73C357.439 163.792 356.971 162.692 356.791 161.528C356.551 158.287 359.497 155.714 362.391 154.273C363.556 153.69 364.772 153.227 365.988 152.747C368.955 151.784 371.822 150.537 374.551 149.024C378.319 146.674 381.402 142.163 380.083 137.996C379.568 136.459 378.672 135.078 377.48 133.982C373.575 130.225 368.026 129.128 362.494 129.557C360.205 129.722 357.939 130.119 355.729 130.74L355.267 130.877" stroke="black" stroke-width="1.13468" stroke-miterlimit="10"/>
<path d="M394.349 120.089C398.62 124.614 401.878 130 403.905 135.886C405.138 139.437 405.857 143.639 403.768 146.795C401.113 150.808 394.931 151.066 390.752 148.613C386.573 146.16 383.901 141.752 381.521 137.636C380.185 135.355 378.849 133.09 377.514 130.775C375.145 127.274 373.406 123.385 372.376 119.283C372.111 117.817 372.059 116.321 372.221 114.84" stroke="black" stroke-width="1.13468" stroke-miterlimit="10"/>
<path d="M389.485 147.823C392.037 151.665 389.93 157.412 385.871 159.641C383.763 160.611 381.445 161.032 379.131 160.867C376.818 160.703 374.582 159.956 372.633 158.698C370.105 157.095 367.86 155.084 365.988 152.746" stroke="black" stroke-width="1.13468" stroke-miterlimit="10"/>
<path d="M338.038 117.567H124.627V272.795H338.038V117.567Z" fill="white" stroke="black" stroke-width="1.13468" stroke-miterlimit="10"/>
<path d="M230.21 203.054C235.176 203.054 239.201 199.022 239.201 194.049C239.201 189.075 235.176 185.044 230.21 185.044C225.244 185.044 221.219 189.075 221.219 194.049C221.219 199.022 225.244 203.054 230.21 203.054Z" fill="white" stroke="black" stroke-width="1.13468" stroke-miterlimit="10"/>
<path d="M316.116 140.775C318.915 140.775 321.185 138.501 321.185 135.697C321.185 132.893 318.915 130.62 316.116 130.62C313.316 130.62 311.046 132.893 311.046 135.697C311.046 138.501 313.316 140.775 316.116 140.775Z" fill="white" stroke="black" stroke-width="1.13468" stroke-miterlimit="10"/>
<path d="M299.794 138.853C301.534 138.853 302.945 137.44 302.945 135.697C302.945 133.954 301.534 132.541 299.794 132.541C298.054 132.541 296.643 133.954 296.643 135.697C296.643 137.44 298.054 138.853 299.794 138.853Z" fill="white" stroke="black" stroke-width="1.13468" stroke-miterlimit="10"/>
<path d="M146.291 169.092C146.307 169.92 146.129 170.741 145.772 171.489C145.416 172.236 144.89 172.89 144.236 173.397C143.813 173.762 143.347 174.074 142.849 174.324C141.885 174.859 140.869 175.296 139.817 175.627C127.829 179.795 115.977 179.881 103.578 179.058C100.816 178.642 98.2462 177.392 96.2136 175.473C95.1979 174.631 94.4656 173.496 94.1163 172.222C93.767 170.949 93.8174 169.598 94.261 168.355C95.0778 166.471 96.5426 164.943 98.3887 164.049C104.297 160.945 112.638 160.448 119.163 160.413C126.281 160.353 133.361 161.454 140.125 163.672C141.53 164.064 142.86 164.684 144.064 165.508C144.662 165.92 145.168 166.451 145.551 167.067C145.934 167.684 146.186 168.373 146.291 169.092Z" fill="white" stroke="black" stroke-width="1.13468" stroke-miterlimit="10"/>
<path d="M147.336 183.26C146.873 185.597 145.522 187.664 143.568 189.023C142.05 190.083 140.381 190.91 138.619 191.476C138.156 191.647 137.659 191.802 137.163 191.939C127.576 194.747 117.433 195.066 107.688 192.865C104.512 192.292 101.487 191.071 98.8 189.28L98.4571 189.023C97.2006 188.126 96.1503 186.97 95.3764 185.633C94.6025 184.296 94.1231 182.808 93.9703 181.27C93.9204 180.193 94.0942 179.117 94.4804 178.11C94.8665 177.104 95.4567 176.188 96.2139 175.421C98.2464 177.34 100.816 178.591 103.578 179.006C115.978 179.881 127.88 179.795 139.817 175.576C140.869 175.245 141.885 174.808 142.849 174.272C143.587 174.809 144.269 175.418 144.887 176.09C145.794 177.033 146.484 178.163 146.908 179.402C147.331 180.641 147.477 181.958 147.336 183.26Z" fill="white" stroke="black" stroke-width="1.13468" stroke-miterlimit="10"/>
<path d="M144.733 201.597C143.435 203.703 141.362 205.212 138.961 205.799C130.167 208.684 120.725 208.952 111.782 206.571C108.706 205.875 105.774 204.651 103.116 202.952C100.452 201.211 98.51 198.559 97.6524 195.49C97.1202 193.309 97.4066 191.008 98.4573 189.024L98.8002 189.281C101.487 191.072 104.512 192.293 107.689 192.866C117.433 195.067 127.576 194.748 137.163 191.94C137.66 191.803 138.156 191.648 138.619 191.477C139.854 191.919 141.01 192.556 142.044 193.364C144.476 195.302 146.068 198.784 144.733 201.597Z" fill="white" stroke="black" stroke-width="1.13468" stroke-miterlimit="10"/>
</svg>
